<?xml version="1.0" encoding="iso-8859-1"?>
<!-- Generator: Adobe Illustrator 16.2.0, SVG Export Plug-In . SVG Version: 6.00 Build 0)  -->
<!DOCTYPE svg PUBLIC "-//W3C//DTD SVG 1.1//EN" "http://www.w3.org/Graphics/SVG/1.1/DTD/svg11.dtd">
<svg version="1.1" id="&#x421;&#x43B;&#x43E;&#x439;_1"
	 xmlns="http://www.w3.org/2000/svg" xmlns:xlink="http://www.w3.org/1999/xlink" x="0px" y="0px" width="120px" height="50.999px"
	 viewBox="0 0 120 50.999" style="enable-background:new 0 0 120 50.999;" xml:space="preserve">
<path d="M52.956,39.059c-0.089,2.383-0.181,4.847-1.137,6.896c-1.07,2.478-3.551,3.887-7.586,4.31
	c-0.057,0.008-0.939,0.065-1.808,0.001c0-0.113,0-49.469,0-49.587c0.117,0,3.662,0,3.662,0V0h-0.06H32.903l0.003,0.686
	c0,0,3.555,0,3.601,0c0,0.117,0,49.461,0,49.579c-0.117,0-3.647,0-3.647,0v0.732h20.554V37.816h-0.409L52.956,39.059z"/>
<path d="M87.771,39.059c-0.088,2.383-0.181,4.847-1.136,6.896c-1.07,2.478-3.551,3.887-7.585,4.31
	c-0.057,0.008-0.94,0.065-1.809,0.001c0-0.113,0-49.469,0-49.587c0.117,0,3.663,0,3.663,0V0h-0.061H67.719l0.002,0.686
	c0,0,3.555,0,3.602,0c0,0.117,0,49.461,0,49.579c-0.117,0-3.647,0-3.647,0v0.732h20.554V37.816h-0.409L87.771,39.059z"/>
<path d="M20.095,39.094c-0.089,2.383-0.181,4.846-1.136,6.896c-1.4,3.241-5,3.977-7.585,4.248
	c-0.057,0.008-0.938,0.065-1.809,0.001c0-0.113,0-24.507,0-24.623c0.832-0.012,2.168,0.083,2.482,0.16
	c1.28,0.266,2.422,1.535,2.788,2.61c0.554,1.64,0.592,3.431,0.631,5.327l0.025,1.068h0.423V16.013h-0.423l-0.025,1.068
	c-0.04,1.896-0.077,3.688-0.631,5.327c-0.417,1.228-1.615,2.337-2.785,2.58c-0.308,0.076-1.626,0.194-2.485,0.188
	c0-0.116,0-24.282,0-24.395c0.869-0.064,1.751-0.007,1.804,0c2.687,0.282,6.179,1.302,7.589,4.569
	c0.957,2.052,1.049,4.515,1.138,6.898l0.05,1.243l0.388,0V0.007L0.043,0.006v0.06l0.002,0.661c0,0,3.5,0,3.501,0
	c0,0.001,0.057,0.015,0.1,0.025c0,0.092,0,49.368,0,49.486c-0.116,0-3.646,0-3.646,0v0.752h20.554V37.851h-0.409L20.095,39.094z"/>
<path d="M119.592,37.861l-0.051,1.244c-0.088,2.382-0.18,4.846-1.135,6.896c-1.4,3.242-5.001,3.977-7.586,4.248
	c-0.057,0.008-0.939,0.065-1.808,0.001c0-0.113,0-24.507,0-24.622c0.831-0.012,2.169,0.083,2.482,0.16
	c1.28,0.265,2.421,1.535,2.787,2.609c0.554,1.64,0.593,3.43,0.631,5.326l0.026,1.07l0.423-0.001V16.023h-0.423l-0.026,1.069
	c-0.038,1.896-0.077,3.688-0.631,5.326c-0.417,1.228-1.615,2.337-2.785,2.58c-0.307,0.075-1.626,0.193-2.485,0.188
	c0-0.116,0-24.282,0-24.395c0.869-0.064,1.751-0.007,1.804,0c2.685,0.282,6.178,1.302,7.589,4.569
	c0.956,2.051,1.048,4.515,1.136,6.897l0.051,1.244l0.387,0V0.018L99.49,0.017v0.059l0.002,0.661c0,0,3.499,0,3.501,0
	c0,0.001,0.056,0.015,0.1,0.025c0,0.092,0,49.368,0,49.485c-0.117,0-3.647,0-3.647,0v0.752H120V37.86L119.592,37.861z"/>
<path d="M83.688,20.836h2.264c0.496,0,2.409,0.13,2.409,2.234c0,1.016-0.569,2.092-2.663,2.221l3.002,3.817
	h-0.969l-2.905-3.805h-0.314v3.805h-0.823V20.836z M85.358,24.642c1.9,0,2.155-0.91,2.155-1.572c0-1.371-0.98-1.572-1.961-1.572
	h-1.041v3.144H85.358z"/>
<path d="M95.805,20.836v5.188c0,0.673-0.072,3.321-3.002,3.321S89.8,26.698,89.8,26.024v-5.188h0.823v5.306
	c0,0.319,0.024,2.541,2.179,2.541s2.179-2.222,2.179-2.541v-5.306H95.805z"/>
</svg>
