<?xml version="1.0" encoding="iso-8859-1"?>
<!-- Generator: Adobe Illustrator 16.2.0, SVG Export Plug-In . SVG Version: 6.00 Build 0)  -->
<!DOCTYPE svg PUBLIC "-//W3C//DTD SVG 1.1//EN" "http://www.w3.org/Graphics/SVG/1.1/DTD/svg11.dtd">
<svg version="1.1" id="&#x421;&#x43B;&#x43E;&#x439;_1"
	 xmlns="http://www.w3.org/2000/svg" xmlns:xlink="http://www.w3.org/1999/xlink" x="0px" y="0px" width="18.361px"
	 height="18.361px" viewBox="0 0 18.361 18.361" style="enable-background:new 0 0 18.361 18.361;" xml:space="preserve">
<path d="M16.353,11.719c2.677-2.677,2.677-7.034,0-9.71c-2.677-2.678-7.032-2.678-9.709,0c-2.485,2.485-2.659,6.414-0.531,9.106
	L0,17.229l1.133,1.133l6.113-6.112C9.939,14.378,13.868,14.203,16.353,11.719 M7.777,10.585c-2.051-2.052-2.053-5.391,0-7.443
	c2.051-2.052,5.391-2.052,7.442,0c2.052,2.052,2.052,5.392,0,7.443C13.167,12.637,9.83,12.637,7.777,10.585"/>
</svg>
