<?xml version="1.0" encoding="iso-8859-1"?>
<!-- Generator: Adobe Illustrator 16.2.0, SVG Export Plug-In . SVG Version: 6.00 Build 0)  -->
<!DOCTYPE svg PUBLIC "-//W3C//DTD SVG 1.1//EN" "http://www.w3.org/Graphics/SVG/1.1/DTD/svg11.dtd">
<svg version="1.1" id="&#x421;&#x43B;&#x43E;&#x439;_1"
	 xmlns="http://www.w3.org/2000/svg" xmlns:xlink="http://www.w3.org/1999/xlink" x="0px" y="0px" width="54px" height="54px"
	 viewBox="0 0 54 54" style="enable-background:new 0 0 54 54;" xml:space="preserve">
<path style="fill-rule:evenodd;clip-rule:evenodd;" d="M27,0C12.088,0,0,12.088,0,27c0,14.913,12.088,27,27,27s27-12.088,27-27
	C54,12.088,41.912,0,27,0z M27,52C13.193,52,2,40.807,2,27C2,13.193,13.193,2,27,2s25,11.193,25,25C52,40.807,40.807,52,27,52z"/>
<path style="fill-rule:evenodd;clip-rule:evenodd;" d="M24,22l10,5l0,0l-10,5V22z"/>
</svg>
