<svg xmlns="http://www.w3.org/2000/svg" width="21" height="17" viewBox="0 0 21 17">
    <path fill-rule="evenodd" d="M20.931 2.013a8.59 8.59 0 0 1-2.466.676A4.307 4.307 0 0 0 20.353.315c-.83.49-1.75.849-2.727 1.04A4.286 4.286 0 0 0 14.492 0a4.294 4.294 0 0 0-4.184 5.27A12.198 12.198 0 0 1 1.456.786a4.29 4.29 0 0 0 1.33 5.73A4.279 4.279 0 0 1 .84 5.979c-.002.018-.002.036-.002.053a4.296 4.296 0 0 0 3.446 4.209 4.311 4.311 0 0 1-1.94.074 4.298 4.298 0 0 0 4.011 2.98 8.614 8.614 0 0 1-5.332 1.837c-.347 0-.688-.02-1.024-.06A12.15 12.15 0 0 0 6.583 17C14.482 17 18.8 10.462 18.8 4.789c0-.186-.004-.37-.013-.555a8.704 8.704 0 0 0 2.143-2.22"/>
</svg>
