<svg xmlns="http://www.w3.org/2000/svg" width="25" height="14" viewBox="0 0 25 14">
    <path fill-rule="evenodd" d="M11.895 13.812h1.453s.439-.048.664-.29c.206-.221.199-.638.199-.638s-.028-1.95.877-2.238c.892-.283 2.037 1.884 3.252 2.718.917.631 1.616.493 1.616.493l3.246-.045s1.699-.106.894-1.44c-.067-.11-.47-.988-2.414-2.794-2.037-1.89-1.764-1.584.688-4.851 1.494-1.992 2.091-3.208 1.904-3.728-.177-.496-1.276-.364-1.276-.364l-3.655.023S19.07.62 18.87.74c-.196.118-.322.391-.322.391s-.579 1.54-1.35 2.851c-1.628 2.764-2.28 2.91-2.545 2.739-.62-.4-.465-1.607-.465-2.465 0-2.68.406-3.796-.79-4.085C13 .077 12.706.012 11.69.003c-1.305-.013-2.408.003-3.034.31-.416.203-.736.658-.54.684.241.031.788.147 1.078.542.374.51.361 1.654.361 1.654s.217 3.153-.502 3.544c-.494.27-1.17-.28-2.62-2.788-.743-1.283-1.306-2.703-1.306-2.703s-.107-.266-.3-.408C4.593.667 4.266.612 4.266.612L.792.635S.27.65.08.876c-.171.201-.014.619-.014.619s2.72 6.362 5.799 9.568c2.824 2.942 6.03 2.749 6.03 2.749"/>
</svg>
